<svg width="auto" height="auto" viewBox="0 0 12900 7607" fill="none" xmlns="http://www.w3.org/2000/svg">
<g id="Component">
<g id="Union">
<mask id="path-1-inside-1_106_11" fill="white">
<path fill-rule="evenodd" clip-rule="evenodd" d="M3187 100C3187 44.7715 3142.23 0 3087 0H100C44.7715 0 0 44.7715 0 100V622V2074V7507C0 7562.23 44.7716 7607 100 7607H12800C12855.2 7607 12900 7562.23 12900 7507V722C12900 666.772 12855.2 622 12800 622H3287C3231.77 622 3187 577.228 3187 522V100Z"/>
</mask>
<path d="M100 7H3087V-7H100V7ZM7 622V100H-7V622H7ZM7 2074V622H-7V2074H7ZM7 7507V2074H-7V7507H7ZM12800 7600H100V7614H12800V7600ZM12893 722V7507H12907V722H12893ZM3287 629H12800V615H3287V629ZM3180 100V522H3194V100H3180ZM3287 615C3235.64 615 3194 573.362 3194 522H3180C3180 581.094 3227.91 629 3287 629V615ZM-7 7507C-7 7566.09 40.9056 7614 100 7614V7600C48.6376 7600 7 7558.36 7 7507H-7ZM12907 722C12907 662.906 12859.1 615 12800 615V629C12851.4 629 12893 670.638 12893 722H12907ZM3087 7C3138.36 7 3180 48.6375 3180 100H3194C3194 40.9055 3146.09 -7 3087 -7V7ZM12800 7614C12859.1 7614 12907 7566.09 12907 7507H12893C12893 7558.36 12851.4 7600 12800 7600V7614ZM100 -7C40.9055 -7 -7 40.9055 -7 100H7C7 48.6375 48.6375 7 100 7V-7Z" fill="black" mask="url(#path-1-inside-1_106_11)"/>
</g>
<path id="Schlaufux.ch" d="M434.441 352.43C433.281 341.575 428.392 333.123 419.775 327.075C411.24 321.026 400.137 318.001 386.465 318.001C376.853 318.001 368.609 319.451 361.732 322.352C354.854 325.252 349.593 329.187 345.947 334.159C342.301 339.131 340.437 344.807 340.354 351.187C340.354 356.49 341.555 361.089 343.958 364.983C346.444 368.877 349.8 372.192 354.026 374.926C358.251 377.578 362.933 379.815 368.07 381.638C373.208 383.461 378.386 384.994 383.607 386.237L407.47 392.202C417.082 394.44 426.321 397.464 435.187 401.276C444.136 405.087 452.132 409.893 459.175 415.693C466.301 421.493 471.935 428.495 476.078 436.698C480.221 444.901 482.293 454.513 482.293 465.533C482.293 480.448 478.481 493.581 470.858 504.933C463.235 516.202 452.214 525.027 437.797 531.407C423.462 537.704 406.103 540.853 385.719 540.853C365.916 540.853 348.723 537.787 334.139 531.656C319.639 525.524 308.287 516.575 300.084 504.809C291.964 493.043 287.572 478.708 286.909 461.805H332.275C332.938 470.671 335.672 478.045 340.478 483.928C345.284 489.811 351.54 494.203 359.246 497.103C367.035 500.003 375.735 501.453 385.347 501.453C395.373 501.453 404.156 499.962 411.696 496.979C419.319 493.913 425.285 489.687 429.594 484.301C433.902 478.832 436.098 472.452 436.181 465.161C436.098 458.532 434.151 453.063 430.339 448.754C426.528 444.363 421.183 440.717 414.306 437.817C407.512 434.834 399.557 432.182 390.442 429.862L361.483 422.405C340.519 417.019 323.947 408.857 311.767 397.92C299.67 386.899 293.621 372.275 293.621 354.045C293.621 339.048 297.681 325.915 305.801 314.646C314.004 303.377 325.149 294.635 339.235 288.42C353.321 282.123 369.272 278.974 387.087 278.974C405.15 278.974 420.976 282.123 434.565 288.42C448.237 294.635 458.968 303.294 466.756 314.397C474.545 325.417 478.564 338.095 478.812 352.43H434.441ZM604.687 540.729C585.629 540.729 569.264 536.544 555.593 528.175C542.003 519.807 531.522 508.248 524.147 493.499C516.856 478.667 513.21 461.598 513.21 442.291C513.21 422.902 516.938 405.791 524.396 390.96C531.853 376.045 542.376 364.444 555.965 356.158C569.637 347.79 585.795 343.605 604.438 343.605C619.933 343.605 633.646 346.464 645.578 352.181C657.593 357.816 667.163 365.812 674.289 376.169C681.415 386.444 685.475 398.458 686.47 412.213H643.465C641.725 403.016 637.582 395.351 631.036 389.219C624.573 383.005 615.914 379.898 605.06 379.898C595.862 379.898 587.784 382.384 580.823 387.355C573.863 392.244 568.436 399.287 564.541 408.484C560.73 417.682 558.824 428.702 558.824 441.545C558.824 454.554 560.73 465.741 564.541 475.104C568.353 484.384 573.697 491.551 580.575 496.606C587.535 501.577 595.697 504.063 605.06 504.063C611.689 504.063 617.613 502.82 622.833 500.335C628.136 497.766 632.569 494.079 636.132 489.273C639.695 484.467 642.14 478.625 643.465 471.748H686.47C685.392 485.254 681.415 497.227 674.538 507.668C667.66 518.025 658.297 526.145 646.448 532.028C634.599 537.829 620.679 540.729 604.687 540.729ZM768.408 425.139V537H723.415V282.455H767.413V378.531H769.651C774.125 367.759 781.044 359.266 790.407 353.051C799.853 346.754 811.868 343.605 826.451 343.605C839.709 343.605 851.268 346.381 861.128 351.933C870.988 357.484 878.611 365.604 883.997 376.293C889.466 386.982 892.2 400.033 892.2 415.445V537H847.207V422.405C847.207 409.562 843.893 399.577 837.264 392.451C830.718 385.242 821.521 381.638 809.672 381.638C801.717 381.638 794.591 383.378 788.294 386.858C782.08 390.255 777.191 395.185 773.628 401.648C770.148 408.112 768.408 415.942 768.408 425.139ZM983.056 282.455V537H938.063V282.455H983.056ZM1084.26 540.853C1072.16 540.853 1061.27 538.699 1051.57 534.39C1041.96 529.998 1034.34 523.535 1028.7 515.001C1023.15 506.466 1020.37 495.943 1020.37 483.431C1020.37 472.659 1022.36 463.752 1026.34 456.709C1030.32 449.666 1035.74 444.031 1042.62 439.805C1049.5 435.58 1057.25 432.389 1065.86 430.235C1074.56 427.998 1083.55 426.382 1092.84 425.388C1104.02 424.228 1113.09 423.192 1120.05 422.281C1127.01 421.286 1132.07 419.795 1135.22 417.806C1138.45 415.735 1140.07 412.544 1140.07 408.236V407.49C1140.07 398.127 1137.29 390.877 1131.74 385.739C1126.19 380.602 1118.19 378.033 1107.75 378.033C1096.73 378.033 1087.99 380.436 1081.52 385.242C1075.14 390.048 1070.84 395.724 1068.6 402.27L1026.59 396.304C1029.9 384.704 1035.37 375.009 1042.99 367.22C1050.62 359.348 1059.94 353.465 1070.96 349.571C1081.98 345.594 1094.16 343.605 1107.5 343.605C1116.7 343.605 1125.85 344.682 1134.97 346.837C1144.08 348.991 1152.41 352.554 1159.95 357.526C1167.49 362.414 1173.54 369.085 1178.1 377.536C1182.74 385.988 1185.06 396.553 1185.06 409.23V537H1141.81V510.775H1140.31C1137.58 516.078 1133.73 521.049 1128.75 525.69C1123.87 530.247 1117.69 533.934 1110.24 536.751C1102.86 539.486 1094.2 540.853 1084.26 540.853ZM1095.94 507.792C1104.97 507.792 1112.8 506.01 1119.43 502.447C1126.06 498.802 1131.16 493.996 1134.72 488.03C1138.37 482.064 1140.19 475.559 1140.19 468.516V446.02C1138.78 447.18 1136.38 448.257 1132.98 449.251C1129.67 450.246 1125.94 451.116 1121.79 451.862C1117.65 452.607 1113.55 453.27 1109.49 453.85C1105.43 454.43 1101.91 454.927 1098.93 455.342C1092.21 456.253 1086.21 457.745 1080.9 459.816C1075.6 461.888 1071.42 464.788 1068.35 468.516C1065.28 472.162 1063.75 476.885 1063.75 482.685C1063.75 490.971 1066.78 497.227 1072.82 501.453C1078.87 505.679 1086.58 507.792 1095.94 507.792ZM1351.98 456.709V346.091H1396.97V537H1353.35V503.069H1351.36C1347.05 513.758 1339.96 522.5 1330.1 529.294C1320.33 536.089 1308.27 539.486 1293.94 539.486C1281.42 539.486 1270.36 536.71 1260.75 531.158C1251.22 525.524 1243.76 517.362 1238.38 506.673C1232.99 495.902 1230.3 482.893 1230.3 467.646V346.091H1275.29V460.686C1275.29 472.784 1278.61 482.395 1285.24 489.521C1291.86 496.647 1300.56 500.21 1311.34 500.21C1317.97 500.21 1324.39 498.594 1330.6 495.363C1336.82 492.131 1341.91 487.326 1345.89 480.945C1349.95 474.482 1351.98 466.403 1351.98 456.709ZM1539.94 346.091V380.892H1427.08V346.091H1539.94ZM1455.3 537V328.069C1455.3 315.226 1457.95 304.537 1463.25 296.002C1468.64 287.468 1475.84 281.087 1484.88 276.861C1493.91 272.636 1503.93 270.523 1514.95 270.523C1522.74 270.523 1529.66 271.144 1535.71 272.387C1541.76 273.63 1546.23 274.749 1549.13 275.743L1540.19 310.544C1538.28 309.964 1535.88 309.384 1532.98 308.804C1530.08 308.141 1526.84 307.81 1523.28 307.81C1514.91 307.81 1508.99 309.84 1505.51 313.9C1502.11 317.877 1500.41 323.594 1500.41 331.052V537H1455.3ZM1696.85 456.709V346.091H1741.85V537H1698.22V503.069H1696.23C1691.92 513.758 1684.84 522.5 1674.98 529.294C1665.2 536.089 1653.14 539.486 1638.81 539.486C1626.3 539.486 1615.24 536.71 1605.62 531.158C1596.09 525.524 1588.64 517.362 1583.25 506.673C1577.87 495.902 1575.17 482.893 1575.17 467.646V346.091H1620.17V460.686C1620.17 472.784 1623.48 482.395 1630.11 489.521C1636.74 496.647 1645.44 500.21 1656.21 500.21C1662.84 500.21 1669.26 498.594 1675.47 495.363C1681.69 492.131 1686.78 487.326 1690.76 480.945C1694.82 474.482 1696.85 466.403 1696.85 456.709ZM1824.9 346.091L1863.43 416.563L1902.58 346.091H1950.19L1892.64 441.545L1951.18 537H1903.83L1863.43 468.268L1823.41 537H1775.68L1833.85 441.545L1777.17 346.091H1824.9ZM2012.7 539.734C2005.16 539.734 1998.7 537.083 1993.31 531.78C1987.93 526.477 1985.28 520.014 1985.36 512.391C1985.28 504.933 1987.93 498.553 1993.31 493.25C1998.7 487.947 2005.16 485.295 2012.7 485.295C2020 485.295 2026.33 487.947 2031.72 493.25C2037.19 498.553 2039.96 504.933 2040.05 512.391C2039.96 517.445 2038.64 522.044 2036.07 526.187C2033.58 530.33 2030.27 533.644 2026.13 536.13C2022.07 538.533 2017.59 539.734 2012.7 539.734ZM2169.77 540.729C2150.72 540.729 2134.35 536.544 2120.68 528.175C2107.09 519.807 2096.61 508.248 2089.24 493.499C2081.94 478.667 2078.3 461.598 2078.3 442.291C2078.3 422.902 2082.03 405.791 2089.48 390.96C2096.94 376.045 2107.46 364.444 2121.05 356.158C2134.73 347.79 2150.88 343.605 2169.53 343.605C2185.02 343.605 2198.73 346.464 2210.67 352.181C2222.68 357.816 2232.25 365.812 2239.38 376.169C2246.5 386.444 2250.56 398.458 2251.56 412.213H2208.55C2206.81 403.016 2202.67 395.351 2196.12 389.219C2189.66 383.005 2181 379.898 2170.15 379.898C2160.95 379.898 2152.87 382.384 2145.91 387.355C2138.95 392.244 2133.52 399.287 2129.63 408.484C2125.82 417.682 2123.91 428.702 2123.91 441.545C2123.91 454.554 2125.82 465.741 2129.63 475.104C2133.44 484.384 2138.79 491.551 2145.66 496.606C2152.62 501.577 2160.78 504.063 2170.15 504.063C2176.78 504.063 2182.7 502.82 2187.92 500.335C2193.22 497.766 2197.66 494.079 2201.22 489.273C2204.78 484.467 2207.23 478.625 2208.55 471.748H2251.56C2250.48 485.254 2246.5 497.227 2239.63 507.668C2232.75 518.025 2223.39 526.145 2211.54 532.028C2199.69 537.829 2185.77 540.729 2169.77 540.729ZM2333.5 425.139V537H2288.5V282.455H2332.5V378.531H2334.74C2339.21 367.759 2346.13 359.266 2355.49 353.051C2364.94 346.754 2376.96 343.605 2391.54 343.605C2404.8 343.605 2416.36 346.381 2426.22 351.933C2436.08 357.484 2443.7 365.604 2449.09 376.293C2454.55 386.982 2457.29 400.033 2457.29 415.445V537H2412.3V422.405C2412.3 409.562 2408.98 399.577 2402.35 392.451C2395.81 385.242 2386.61 381.638 2374.76 381.638C2366.81 381.638 2359.68 383.378 2353.38 386.858C2347.17 390.255 2342.28 395.185 2338.72 401.648C2335.24 408.112 2333.5 415.942 2333.5 425.139Z" fill="#102030"/>
<rect id="Rectangle 1313" x="271" y="1575" width="12358" height="5787" rx="59.7551" fill="#F9F9F9" stroke="black" stroke-width="7"/>
<path id="Star 3" d="M531.5 899.952L565.686 1116.27L782 1150.45L565.686 1184.64L531.5 1400.95L497.314 1184.64L281 1150.45L497.314 1116.27L531.5 899.952Z" stroke="black" stroke-width="7"/>
<rect id="Rectangle 1312" width="11706" height="501" rx="59.7551" transform="matrix(1 0 0 -1 923 1401)" fill="white" stroke="black" stroke-width="7"/>
<path id="https://evulpo/questions/pew-pew" d="M1138.73 1162.48V1256.01H1108.06V1045.97H1138.32V1124.12H1140.27C1143.96 1115.65 1149.6 1108.91 1157.19 1103.92C1164.78 1098.93 1174.69 1096.43 1186.93 1096.43C1197.73 1096.43 1207.17 1098.66 1215.24 1103.1C1223.37 1107.54 1229.66 1114.18 1234.11 1123C1238.62 1131.75 1240.88 1142.69 1240.88 1155.81V1256.01H1210.21V1159.51C1210.21 1147.95 1207.24 1138.99 1201.29 1132.64C1195.34 1126.21 1187.07 1123 1176.47 1123C1169.22 1123 1162.73 1124.53 1156.98 1127.61C1151.31 1130.69 1146.83 1135.2 1143.55 1141.15C1140.34 1147.03 1138.73 1154.14 1138.73 1162.48ZM1355.33 1098.48V1123.1H1269.29V1098.48H1355.33ZM1292.36 1060.74H1323.03V1209.76C1323.03 1215.71 1323.92 1220.19 1325.69 1223.2C1327.47 1226.14 1329.76 1228.15 1332.57 1229.25C1335.44 1230.27 1338.55 1230.79 1341.9 1230.79C1344.36 1230.79 1346.51 1230.61 1348.36 1230.27C1350.21 1229.93 1351.64 1229.66 1352.67 1229.45L1358.2 1254.78C1356.43 1255.47 1353.9 1256.15 1350.62 1256.84C1347.33 1257.59 1343.23 1258 1338.31 1258.07C1330.24 1258.2 1322.72 1256.77 1315.75 1253.76C1308.77 1250.75 1303.13 1246.1 1298.82 1239.81C1294.52 1233.52 1292.36 1225.62 1292.36 1216.12V1060.74ZM1462.79 1098.48V1123.1H1376.74V1098.48H1462.79ZM1399.82 1060.74H1430.48V1209.76C1430.48 1215.71 1431.37 1220.19 1433.15 1223.2C1434.93 1226.14 1437.22 1228.15 1440.02 1229.25C1442.89 1230.27 1446 1230.79 1449.35 1230.79C1451.82 1230.79 1453.97 1230.61 1455.82 1230.27C1457.66 1229.93 1459.1 1229.66 1460.12 1229.45L1465.66 1254.78C1463.88 1255.47 1461.35 1256.15 1458.07 1256.84C1454.79 1257.59 1450.69 1258 1445.76 1258.07C1437.7 1258.2 1430.18 1256.77 1423.2 1253.76C1416.23 1250.75 1410.59 1246.1 1406.28 1239.81C1401.97 1233.52 1399.82 1225.62 1399.82 1216.12V1060.74ZM1496.71 1315.09V1098.48H1526.66V1124.02H1529.22C1531 1120.74 1533.56 1116.94 1536.91 1112.64C1540.26 1108.33 1544.91 1104.57 1550.86 1101.36C1556.81 1098.07 1564.67 1096.43 1574.45 1096.43C1587.17 1096.43 1598.52 1099.65 1608.5 1106.07C1618.48 1112.5 1626.31 1121.76 1631.99 1133.87C1637.73 1145.97 1640.6 1160.53 1640.6 1177.56C1640.6 1194.58 1637.76 1209.18 1632.09 1221.35C1626.41 1233.45 1618.62 1242.78 1608.71 1249.35C1598.79 1255.84 1587.48 1259.09 1574.76 1259.09C1565.19 1259.09 1557.36 1257.48 1551.27 1254.27C1545.26 1251.06 1540.54 1247.3 1537.12 1242.99C1533.7 1238.68 1531.07 1234.85 1529.22 1231.5H1527.38V1315.09H1496.71ZM1526.76 1177.25C1526.76 1188.33 1528.37 1198.03 1531.58 1206.38C1534.79 1214.72 1539.44 1221.25 1545.53 1225.96C1551.61 1230.61 1559.07 1232.94 1567.89 1232.94C1577.05 1232.94 1584.71 1230.51 1590.86 1225.66C1597.01 1220.73 1601.66 1214.07 1604.81 1205.66C1608.02 1197.25 1609.63 1187.78 1609.63 1177.25C1609.63 1166.86 1608.06 1157.52 1604.91 1149.25C1601.83 1140.98 1597.18 1134.45 1590.96 1129.66C1584.81 1124.88 1577.12 1122.48 1567.89 1122.48C1559 1122.48 1551.48 1124.77 1545.32 1129.35C1539.24 1133.94 1534.62 1140.33 1531.48 1148.53C1528.33 1156.74 1526.76 1166.31 1526.76 1177.25ZM1793 1136.94L1765.21 1141.87C1764.05 1138.31 1762.2 1134.93 1759.67 1131.71C1757.21 1128.5 1753.86 1125.87 1749.62 1123.82C1745.38 1121.76 1740.08 1120.74 1733.72 1120.74C1725.04 1120.74 1717.79 1122.69 1711.98 1126.59C1706.17 1130.41 1703.26 1135.37 1703.26 1141.46C1703.26 1146.72 1705.21 1150.96 1709.11 1154.17C1713.01 1157.39 1719.3 1160.02 1727.98 1162.07L1753.01 1167.81C1767.5 1171.16 1778.3 1176.33 1785.41 1183.3C1792.52 1190.27 1796.08 1199.33 1796.08 1210.48C1796.08 1219.91 1793.35 1228.32 1787.88 1235.71C1782.47 1243.02 1774.92 1248.77 1765.21 1252.94C1755.57 1257.11 1744.39 1259.19 1731.67 1259.19C1714.03 1259.19 1699.64 1255.43 1688.5 1247.91C1677.35 1240.32 1670.51 1229.55 1667.98 1215.61L1697.62 1211.09C1699.47 1218.82 1703.26 1224.67 1709.01 1228.63C1714.75 1232.53 1722.24 1234.48 1731.47 1234.48C1741.52 1234.48 1749.55 1232.39 1755.57 1228.22C1761.59 1223.98 1764.59 1218.82 1764.59 1212.73C1764.59 1207.81 1762.75 1203.68 1759.06 1200.33C1755.43 1196.97 1749.86 1194.45 1742.34 1192.74L1715.67 1186.89C1700.97 1183.54 1690.1 1178.21 1683.06 1170.89C1676.09 1163.57 1672.6 1154.31 1672.6 1143.1C1672.6 1133.8 1675.2 1125.66 1680.39 1118.69C1685.59 1111.71 1692.77 1106.28 1701.93 1102.38C1711.09 1098.42 1721.59 1096.43 1733.42 1096.43C1750.44 1096.43 1763.84 1100.13 1773.62 1107.51C1783.4 1114.83 1789.86 1124.64 1793 1136.94ZM1850 1257.96C1844.39 1257.96 1839.57 1255.98 1835.54 1252.01C1831.51 1247.98 1829.49 1243.13 1829.49 1237.45C1829.49 1231.84 1831.51 1227.06 1835.54 1223.09C1839.57 1219.06 1844.39 1217.04 1850 1217.04C1855.61 1217.04 1860.43 1219.06 1864.46 1223.09C1868.5 1227.06 1870.51 1231.84 1870.51 1237.45C1870.51 1241.21 1869.56 1244.66 1867.64 1247.81C1865.79 1250.89 1863.33 1253.35 1860.26 1255.19C1857.18 1257.04 1853.76 1257.96 1850 1257.96ZM1850 1143.3C1844.39 1143.3 1839.57 1141.29 1835.54 1137.25C1831.51 1133.22 1829.49 1128.4 1829.49 1122.79C1829.49 1117.18 1831.51 1112.4 1835.54 1108.43C1839.57 1104.4 1844.39 1102.38 1850 1102.38C1855.61 1102.38 1860.43 1104.4 1864.46 1108.43C1868.5 1112.4 1870.51 1117.18 1870.51 1122.79C1870.51 1126.55 1869.56 1130 1867.64 1133.15C1865.79 1136.23 1863.33 1138.69 1860.26 1140.53C1857.18 1142.38 1853.76 1143.3 1850 1143.3ZM1991.58 1036.13L1923.89 1287.6H1896.51L1964.2 1036.13H1991.58ZM2097.63 1036.13L2029.94 1287.6H2002.56L2070.25 1036.13H2097.63ZM2191.57 1259.19C2176.05 1259.19 2162.69 1255.88 2151.47 1249.25C2140.33 1242.55 2131.71 1233.14 2125.63 1221.04C2119.61 1208.87 2116.6 1194.62 2116.6 1178.27C2116.6 1162.14 2119.61 1147.92 2125.63 1135.61C2131.71 1123.3 2140.19 1113.7 2151.06 1106.79C2162 1099.89 2174.79 1096.43 2189.42 1096.43C2198.31 1096.43 2206.92 1097.9 2215.26 1100.84C2223.61 1103.78 2231.09 1108.4 2237.72 1114.69C2244.36 1120.98 2249.59 1129.15 2253.42 1139.2C2257.25 1149.18 2259.16 1161.32 2259.16 1175.61V1186.48H2133.94V1163.51H2229.11C2229.11 1155.44 2227.47 1148.29 2224.19 1142.07C2220.9 1135.78 2216.29 1130.82 2210.34 1127.2C2204.46 1123.58 2197.56 1121.76 2189.62 1121.76C2181.01 1121.76 2173.49 1123.88 2167.06 1128.12C2160.7 1132.29 2155.78 1137.76 2152.29 1144.53C2148.87 1151.23 2147.17 1158.52 2147.17 1166.38V1184.33C2147.17 1194.86 2149.01 1203.81 2152.7 1211.2C2156.46 1218.58 2161.69 1224.22 2168.39 1228.12C2175.1 1231.95 2182.92 1233.86 2191.88 1233.86C2197.69 1233.86 2202.99 1233.04 2207.78 1231.4C2212.56 1229.69 2216.7 1227.16 2220.19 1223.81C2223.67 1220.46 2226.34 1216.32 2228.19 1211.4L2257.21 1216.63C2254.89 1225.18 2250.72 1232.67 2244.7 1239.09C2238.75 1245.45 2231.26 1250.41 2222.24 1253.96C2213.28 1257.45 2203.06 1259.19 2191.57 1259.19ZM2423.43 1098.48L2366.31 1256.01H2333.49L2276.26 1098.48H2309.18L2349.08 1219.71H2350.72L2390.51 1098.48H2423.43ZM2552.04 1190.68V1098.48H2582.81V1256.01H2552.66V1228.73H2551.02C2547.39 1237.14 2541.58 1244.15 2533.58 1249.76C2525.65 1255.3 2515.77 1258.07 2503.94 1258.07C2493.82 1258.07 2484.87 1255.84 2477.07 1251.4C2469.35 1246.89 2463.26 1240.22 2458.82 1231.4C2454.44 1222.58 2452.25 1211.67 2452.25 1198.68V1098.48H2482.92V1194.99C2482.92 1205.73 2485.89 1214.27 2491.84 1220.63C2497.79 1226.99 2505.51 1230.17 2515.02 1230.17C2520.76 1230.17 2526.47 1228.73 2532.15 1225.86C2537.89 1222.99 2542.64 1218.65 2546.4 1212.84C2550.23 1207.03 2552.11 1199.64 2552.04 1190.68ZM2654.68 1045.97V1256.01H2624.01V1045.97H2654.68ZM2695.93 1315.09V1098.48H2725.88V1124.02H2728.44C2730.22 1120.74 2732.79 1116.94 2736.14 1112.64C2739.49 1108.33 2744.14 1104.57 2750.08 1101.36C2756.03 1098.07 2763.89 1096.43 2773.67 1096.43C2786.39 1096.43 2797.74 1099.65 2807.72 1106.07C2817.7 1112.5 2825.53 1121.76 2831.21 1133.87C2836.95 1145.97 2839.82 1160.53 2839.82 1177.56C2839.82 1194.58 2836.99 1209.18 2831.31 1221.35C2825.64 1233.45 2817.84 1242.78 2807.93 1249.35C2798.01 1255.84 2786.7 1259.09 2773.98 1259.09C2764.41 1259.09 2756.58 1257.48 2750.49 1254.27C2744.48 1251.06 2739.76 1247.3 2736.34 1242.99C2732.92 1238.68 2730.29 1234.85 2728.44 1231.5H2726.6V1315.09H2695.93ZM2725.98 1177.25C2725.98 1188.33 2727.59 1198.03 2730.8 1206.38C2734.02 1214.72 2738.67 1221.25 2744.75 1225.96C2750.84 1230.61 2758.29 1232.94 2767.11 1232.94C2776.27 1232.94 2783.93 1230.51 2790.08 1225.66C2796.23 1220.73 2800.88 1214.07 2804.03 1205.66C2807.24 1197.25 2808.85 1187.78 2808.85 1177.25C2808.85 1166.86 2807.28 1157.52 2804.13 1149.25C2801.06 1140.98 2796.41 1134.45 2790.18 1129.66C2784.03 1124.88 2776.34 1122.48 2767.11 1122.48C2758.22 1122.48 2750.7 1124.77 2744.55 1129.35C2738.46 1133.94 2733.84 1140.33 2730.7 1148.53C2727.55 1156.74 2725.98 1166.31 2725.98 1177.25ZM2940.54 1259.19C2925.77 1259.19 2912.88 1255.81 2901.87 1249.04C2890.86 1242.27 2882.32 1232.8 2876.23 1220.63C2870.15 1208.46 2867.1 1194.24 2867.1 1177.97C2867.1 1161.63 2870.15 1147.34 2876.23 1135.1C2882.32 1122.86 2890.86 1113.36 2901.87 1106.59C2912.88 1099.82 2925.77 1096.43 2940.54 1096.43C2955.3 1096.43 2968.19 1099.82 2979.2 1106.59C2990.21 1113.36 2998.75 1122.86 3004.84 1135.1C3010.93 1147.34 3013.97 1161.63 3013.97 1177.97C3013.97 1194.24 3010.93 1208.46 3004.84 1220.63C2998.75 1232.8 2990.21 1242.27 2979.2 1249.04C2968.19 1255.81 2955.3 1259.19 2940.54 1259.19ZM2940.64 1233.45C2950.21 1233.45 2958.14 1230.92 2964.43 1225.86C2970.72 1220.8 2975.37 1214.07 2978.38 1205.66C2981.46 1197.25 2982.99 1187.98 2982.99 1177.86C2982.99 1167.81 2981.46 1158.58 2978.38 1150.17C2975.37 1141.7 2970.72 1134.89 2964.43 1129.76C2958.14 1124.64 2950.21 1122.07 2940.64 1122.07C2931 1122.07 2923 1124.64 2916.64 1129.76C2910.35 1134.89 2905.67 1141.7 2902.59 1150.17C2899.58 1158.58 2898.08 1167.81 2898.08 1177.86C2898.08 1187.98 2899.58 1197.25 2902.59 1205.66C2905.67 1214.07 2910.35 1220.8 2916.64 1225.86C2923 1230.92 2931 1233.45 2940.64 1233.45ZM3128.19 1036.13L3060.5 1287.6H3033.12L3100.81 1036.13H3128.19ZM3260.6 1315.09V1231.5H3258.75C3256.9 1234.85 3254.24 1238.68 3250.75 1242.99C3247.33 1247.3 3242.61 1251.06 3236.6 1254.27C3230.58 1257.48 3222.79 1259.09 3213.21 1259.09C3200.5 1259.09 3189.15 1255.84 3179.16 1249.35C3169.25 1242.78 3161.46 1233.45 3155.78 1221.35C3150.17 1209.18 3147.37 1194.58 3147.37 1177.56C3147.37 1160.53 3150.21 1145.97 3155.88 1133.87C3161.63 1121.76 3169.49 1112.5 3179.47 1106.07C3189.45 1099.65 3200.77 1096.43 3213.42 1096.43C3223.2 1096.43 3231.06 1098.07 3237.01 1101.36C3243.02 1104.57 3247.67 1108.33 3250.96 1112.64C3254.31 1116.94 3256.9 1120.74 3258.75 1124.02H3261.31V1098.48H3291.26V1315.09H3260.6ZM3219.98 1232.94C3228.8 1232.94 3236.26 1230.61 3242.34 1225.96C3248.49 1221.25 3253.14 1214.72 3256.29 1206.38C3259.5 1198.03 3261.11 1188.33 3261.11 1177.25C3261.11 1166.31 3259.54 1156.74 3256.39 1148.53C3253.25 1140.33 3248.63 1133.94 3242.55 1129.35C3236.46 1124.77 3228.94 1122.48 3219.98 1122.48C3210.75 1122.48 3203.06 1124.88 3196.91 1129.66C3190.75 1134.45 3186.1 1140.98 3182.96 1149.25C3179.88 1157.52 3178.34 1166.86 3178.34 1177.25C3178.34 1187.78 3179.92 1197.25 3183.06 1205.66C3186.21 1214.07 3190.86 1220.73 3197.01 1225.66C3203.23 1230.51 3210.89 1232.94 3219.98 1232.94ZM3432.28 1190.68V1098.48H3463.05V1256.01H3432.9V1228.73H3431.25C3427.63 1237.14 3421.82 1244.15 3413.82 1249.76C3405.89 1255.3 3396.01 1258.07 3384.18 1258.07C3374.06 1258.07 3365.1 1255.84 3357.31 1251.4C3349.58 1246.89 3343.5 1240.22 3339.05 1231.4C3334.68 1222.58 3332.49 1211.67 3332.49 1198.68V1098.48H3363.16V1194.99C3363.16 1205.73 3366.13 1214.27 3372.08 1220.63C3378.03 1226.99 3385.75 1230.17 3395.26 1230.17C3401 1230.17 3406.71 1228.73 3412.38 1225.86C3418.13 1222.99 3422.88 1218.65 3426.64 1212.84C3430.47 1207.03 3432.35 1199.64 3432.28 1190.68ZM3572.14 1259.19C3556.62 1259.19 3543.26 1255.88 3532.04 1249.25C3520.9 1242.55 3512.28 1233.14 3506.2 1221.04C3500.18 1208.87 3497.17 1194.62 3497.17 1178.27C3497.17 1162.14 3500.18 1147.92 3506.2 1135.61C3512.28 1123.3 3520.76 1113.7 3531.63 1106.79C3542.57 1099.89 3555.36 1096.43 3569.99 1096.43C3578.88 1096.43 3587.49 1097.9 3595.84 1100.84C3604.18 1103.78 3611.66 1108.4 3618.3 1114.69C3624.93 1120.98 3630.16 1129.15 3633.99 1139.2C3637.82 1149.18 3639.73 1161.32 3639.73 1175.61V1186.48H3514.51V1163.51H3609.68C3609.68 1155.44 3608.04 1148.29 3604.76 1142.07C3601.48 1135.78 3596.86 1130.82 3590.91 1127.2C3585.03 1123.58 3578.13 1121.76 3570.2 1121.76C3561.58 1121.76 3554.06 1123.88 3547.63 1128.12C3541.27 1132.29 3536.35 1137.76 3532.86 1144.53C3529.45 1151.23 3527.74 1158.52 3527.74 1166.38V1184.33C3527.74 1194.86 3529.58 1203.81 3533.27 1211.2C3537.04 1218.58 3542.27 1224.22 3548.97 1228.12C3555.67 1231.95 3563.5 1233.86 3572.45 1233.86C3578.26 1233.86 3583.56 1233.04 3588.35 1231.4C3593.13 1229.69 3597.27 1227.16 3600.76 1223.81C3604.25 1220.46 3606.91 1216.32 3608.76 1211.4L3637.78 1216.63C3635.46 1225.18 3631.29 1232.67 3625.27 1239.09C3619.32 1245.45 3611.83 1250.41 3602.81 1253.96C3593.85 1257.45 3583.63 1259.19 3572.14 1259.19ZM3791.8 1136.94L3764.01 1141.87C3762.84 1138.31 3761 1134.93 3758.47 1131.71C3756.01 1128.5 3752.66 1125.87 3748.42 1123.82C3744.18 1121.76 3738.88 1120.74 3732.52 1120.74C3723.84 1120.74 3716.59 1122.69 3710.78 1126.59C3704.97 1130.41 3702.06 1135.37 3702.06 1141.46C3702.06 1146.72 3704.01 1150.96 3707.91 1154.17C3711.8 1157.39 3718.09 1160.02 3726.78 1162.07L3751.8 1167.81C3766.3 1171.16 3777.1 1176.33 3784.21 1183.3C3791.32 1190.27 3794.88 1199.33 3794.88 1210.48C3794.88 1219.91 3792.14 1228.32 3786.67 1235.71C3781.27 1243.02 3773.72 1248.77 3764.01 1252.94C3754.37 1257.11 3743.19 1259.19 3730.47 1259.19C3712.83 1259.19 3698.44 1255.43 3687.29 1247.91C3676.15 1240.32 3669.31 1229.55 3666.78 1215.61L3696.42 1211.09C3698.27 1218.82 3702.06 1224.67 3707.8 1228.63C3713.55 1232.53 3721.03 1234.48 3730.26 1234.48C3740.32 1234.48 3748.35 1232.39 3754.37 1228.22C3760.38 1223.98 3763.39 1218.82 3763.39 1212.73C3763.39 1207.81 3761.55 1203.68 3757.85 1200.33C3754.23 1196.97 3748.66 1194.45 3741.14 1192.74L3714.47 1186.89C3699.77 1183.54 3688.9 1178.21 3681.86 1170.89C3674.88 1163.57 3671.4 1154.31 3671.4 1143.1C3671.4 1133.8 3673.99 1125.66 3679.19 1118.69C3684.39 1111.71 3691.57 1106.28 3700.73 1102.38C3709.89 1098.42 3720.39 1096.43 3732.21 1096.43C3749.24 1096.43 3762.64 1100.13 3772.42 1107.51C3782.19 1114.83 3788.66 1124.64 3791.8 1136.94ZM3902.13 1098.48V1123.1H3816.08V1098.48H3902.13ZM3839.16 1060.74H3869.82V1209.76C3869.82 1215.71 3870.71 1220.19 3872.49 1223.2C3874.27 1226.14 3876.56 1228.15 3879.36 1229.25C3882.23 1230.27 3885.34 1230.79 3888.69 1230.79C3891.15 1230.79 3893.31 1230.61 3895.15 1230.27C3897 1229.93 3898.44 1229.66 3899.46 1229.45L3905 1254.78C3903.22 1255.47 3900.69 1256.15 3897.41 1256.84C3894.13 1257.59 3890.03 1258 3885.1 1258.07C3877.04 1258.2 3869.51 1256.77 3862.54 1253.76C3855.57 1250.75 3849.93 1246.1 3845.62 1239.81C3841.31 1233.52 3839.16 1225.62 3839.16 1216.12V1060.74ZM3936.05 1256.01V1098.48H3966.71V1256.01H3936.05ZM3951.54 1074.18C3946.2 1074.18 3941.62 1072.4 3937.79 1068.84C3934.03 1065.22 3932.15 1060.91 3932.15 1055.92C3932.15 1050.86 3934.03 1046.56 3937.79 1043C3941.62 1039.38 3946.2 1037.56 3951.54 1037.56C3956.87 1037.56 3961.42 1039.38 3965.18 1043C3969.01 1046.56 3970.92 1050.86 3970.92 1055.92C3970.92 1060.91 3969.01 1065.22 3965.18 1068.84C3961.42 1072.4 3956.87 1074.18 3951.54 1074.18ZM4074.32 1259.19C4059.56 1259.19 4046.67 1255.81 4035.66 1249.04C4024.65 1242.27 4016.11 1232.8 4010.02 1220.63C4003.93 1208.46 4000.89 1194.24 4000.89 1177.97C4000.89 1161.63 4003.93 1147.34 4010.02 1135.1C4016.11 1122.86 4024.65 1113.36 4035.66 1106.59C4046.67 1099.82 4059.56 1096.43 4074.32 1096.43C4089.09 1096.43 4101.98 1099.82 4112.99 1106.59C4124 1113.36 4132.54 1122.86 4138.63 1135.1C4144.71 1147.34 4147.76 1161.63 4147.76 1177.97C4147.76 1194.24 4144.71 1208.46 4138.63 1220.63C4132.54 1232.8 4124 1242.27 4112.99 1249.04C4101.98 1255.81 4089.09 1259.19 4074.32 1259.19ZM4074.43 1233.45C4084 1233.45 4091.93 1230.92 4098.22 1225.86C4104.51 1220.8 4109.16 1214.07 4112.17 1205.66C4115.25 1197.25 4116.78 1187.98 4116.78 1177.86C4116.78 1167.81 4115.25 1158.58 4112.17 1150.17C4109.16 1141.7 4104.51 1134.89 4098.22 1129.76C4091.93 1124.64 4084 1122.07 4074.43 1122.07C4064.79 1122.07 4056.79 1124.64 4050.43 1129.76C4044.14 1134.89 4039.45 1141.7 4036.38 1150.17C4033.37 1158.58 4031.87 1167.81 4031.87 1177.86C4031.87 1187.98 4033.37 1197.25 4036.38 1205.66C4039.45 1214.07 4044.14 1220.8 4050.43 1225.86C4056.79 1230.92 4064.79 1233.45 4074.43 1233.45ZM4212.65 1162.48V1256.01H4181.99V1098.48H4211.42V1124.12H4213.37C4216.99 1115.78 4222.67 1109.08 4230.39 1104.02C4238.19 1098.96 4248 1096.43 4259.83 1096.43C4270.56 1096.43 4279.96 1098.69 4288.03 1103.2C4296.1 1107.65 4302.36 1114.28 4306.8 1123.1C4311.24 1131.92 4313.47 1142.82 4313.47 1155.81V1256.01H4282.8V1159.51C4282.8 1148.09 4279.83 1139.17 4273.88 1132.74C4267.93 1126.24 4259.76 1123 4249.37 1123C4242.26 1123 4235.93 1124.53 4230.39 1127.61C4224.92 1130.69 4220.58 1135.2 4217.37 1141.15C4214.22 1147.03 4212.65 1154.14 4212.65 1162.48ZM4472.64 1136.94L4444.84 1141.87C4443.68 1138.31 4441.84 1134.93 4439.31 1131.71C4436.84 1128.5 4433.49 1125.87 4429.26 1123.82C4425.02 1121.76 4419.72 1120.74 4413.36 1120.74C4404.68 1120.74 4397.43 1122.69 4391.62 1126.59C4385.8 1130.41 4382.9 1135.37 4382.9 1141.46C4382.9 1146.72 4384.85 1150.96 4388.74 1154.17C4392.64 1157.39 4398.93 1160.02 4407.62 1162.07L4432.64 1167.81C4447.13 1171.16 4457.94 1176.33 4465.05 1183.3C4472.16 1190.27 4475.71 1199.33 4475.71 1210.48C4475.71 1219.91 4472.98 1228.32 4467.51 1235.71C4462.11 1243.02 4454.55 1248.77 4444.84 1252.94C4435.2 1257.11 4424.02 1259.19 4411.31 1259.19C4393.67 1259.19 4379.27 1255.43 4368.13 1247.91C4356.99 1240.32 4350.15 1229.55 4347.62 1215.61L4377.26 1211.09C4379.1 1218.82 4382.9 1224.67 4388.64 1228.63C4394.39 1232.53 4401.87 1234.48 4411.1 1234.48C4421.15 1234.48 4429.19 1232.39 4435.2 1228.22C4441.22 1223.98 4444.23 1218.82 4444.23 1212.73C4444.23 1207.81 4442.38 1203.68 4438.69 1200.33C4435.07 1196.97 4429.49 1194.45 4421.97 1192.74L4395.31 1186.89C4380.61 1183.54 4369.74 1178.21 4362.69 1170.89C4355.72 1163.57 4352.23 1154.31 4352.23 1143.1C4352.23 1133.8 4354.83 1125.66 4360.03 1118.69C4365.22 1111.71 4372.4 1106.28 4381.57 1102.38C4390.73 1098.42 4401.22 1096.43 4413.05 1096.43C4430.08 1096.43 4443.48 1100.13 4453.25 1107.51C4463.03 1114.83 4469.49 1124.64 4472.64 1136.94ZM4589.43 1036.13L4521.74 1287.6H4494.35L4562.04 1036.13H4589.43ZM4615.48 1315.09V1098.48H4645.42V1124.02H4647.99C4649.77 1120.74 4652.33 1116.94 4655.68 1112.64C4659.03 1108.33 4663.68 1104.57 4669.63 1101.36C4675.58 1098.07 4683.44 1096.43 4693.22 1096.43C4705.93 1096.43 4717.28 1099.65 4727.27 1106.07C4737.25 1112.5 4745.08 1121.76 4750.75 1133.87C4756.5 1145.97 4759.37 1160.53 4759.37 1177.56C4759.37 1194.58 4756.53 1209.18 4750.85 1221.35C4745.18 1233.45 4737.39 1242.78 4727.47 1249.35C4717.56 1255.84 4706.24 1259.09 4693.52 1259.09C4683.95 1259.09 4676.12 1257.48 4670.04 1254.27C4664.02 1251.06 4659.3 1247.3 4655.88 1242.99C4652.47 1238.68 4649.83 1234.85 4647.99 1231.5H4646.14V1315.09H4615.48ZM4645.53 1177.25C4645.53 1188.33 4647.13 1198.03 4650.35 1206.38C4653.56 1214.72 4658.21 1221.25 4664.29 1225.96C4670.38 1230.61 4677.83 1232.94 4686.65 1232.94C4695.81 1232.94 4703.47 1230.51 4709.63 1225.66C4715.78 1220.73 4720.43 1214.07 4723.57 1205.66C4726.79 1197.25 4728.39 1187.78 4728.39 1177.25C4728.39 1166.86 4726.82 1157.52 4723.68 1149.25C4720.6 1140.98 4715.95 1134.45 4709.73 1129.66C4703.57 1124.88 4695.88 1122.48 4686.65 1122.48C4677.76 1122.48 4670.24 1124.77 4664.09 1129.35C4658 1133.94 4653.39 1140.33 4650.24 1148.53C4647.1 1156.74 4645.53 1166.31 4645.53 1177.25ZM4861.62 1259.19C4846.1 1259.19 4832.73 1255.88 4821.52 1249.25C4810.37 1242.55 4801.76 1233.14 4795.67 1221.04C4789.66 1208.87 4786.65 1194.62 4786.65 1178.27C4786.65 1162.14 4789.66 1147.92 4795.67 1135.61C4801.76 1123.3 4810.24 1113.7 4821.11 1106.79C4832.05 1099.89 4844.83 1096.43 4859.46 1096.43C4868.35 1096.43 4876.97 1097.9 4885.31 1100.84C4893.65 1103.78 4901.14 1108.4 4907.77 1114.69C4914.4 1120.98 4919.63 1129.15 4923.46 1139.2C4927.29 1149.18 4929.2 1161.32 4929.2 1175.61V1186.48H4803.98V1163.51H4899.15C4899.15 1155.44 4897.51 1148.29 4894.23 1142.07C4890.95 1135.78 4886.33 1130.82 4880.39 1127.2C4874.51 1123.58 4867.6 1121.76 4859.67 1121.76C4851.05 1121.76 4843.53 1123.88 4837.11 1128.12C4830.75 1132.29 4825.83 1137.76 4822.34 1144.53C4818.92 1151.23 4817.21 1158.52 4817.21 1166.38V1184.33C4817.21 1194.86 4819.06 1203.81 4822.75 1211.2C4826.51 1218.58 4831.74 1224.22 4838.44 1228.12C4845.14 1231.95 4852.97 1233.86 4861.93 1233.86C4867.74 1233.86 4873.04 1233.04 4877.82 1231.4C4882.61 1229.69 4886.75 1227.16 4890.23 1223.81C4893.72 1220.46 4896.39 1216.32 4898.23 1211.4L4927.26 1216.63C4924.93 1225.18 4920.76 1232.67 4914.74 1239.09C4908.8 1245.45 4901.31 1250.41 4892.28 1253.96C4883.33 1257.45 4873.1 1259.19 4861.62 1259.19ZM4997.1 1256.01L4950.74 1098.48H4982.43L5013.3 1214.17H5014.84L5045.81 1098.48H5077.5L5108.27 1213.66H5109.81L5140.48 1098.48H5172.17L5125.91 1256.01H5094.63L5062.63 1142.28H5060.27L5028.28 1256.01H4997.1ZM5294.08 1153.97V1180.53H5200.96V1153.97H5294.08ZM5334.95 1315.09V1098.48H5364.9V1124.02H5367.46C5369.24 1120.74 5371.81 1116.94 5375.16 1112.64C5378.51 1108.33 5383.16 1104.57 5389.1 1101.36C5395.05 1098.07 5402.92 1096.43 5412.69 1096.43C5425.41 1096.43 5436.76 1099.65 5446.74 1106.07C5456.72 1112.5 5464.55 1121.76 5470.23 1133.87C5475.97 1145.97 5478.84 1160.53 5478.84 1177.56C5478.84 1194.58 5476.01 1209.18 5470.33 1221.35C5464.66 1233.45 5456.86 1242.78 5446.95 1249.35C5437.03 1255.84 5425.72 1259.09 5413 1259.09C5403.43 1259.09 5395.6 1257.48 5389.51 1254.27C5383.5 1251.06 5378.78 1247.3 5375.36 1242.99C5371.94 1238.68 5369.31 1234.85 5367.46 1231.5H5365.62V1315.09H5334.95ZM5365 1177.25C5365 1188.33 5366.61 1198.03 5369.82 1206.38C5373.04 1214.72 5377.69 1221.25 5383.77 1225.96C5389.86 1230.61 5397.31 1232.94 5406.13 1232.94C5415.29 1232.94 5422.95 1230.51 5429.1 1225.66C5435.26 1220.73 5439.91 1214.07 5443.05 1205.66C5446.26 1197.25 5447.87 1187.78 5447.87 1177.25C5447.87 1166.86 5446.3 1157.52 5443.15 1149.25C5440.08 1140.98 5435.43 1134.45 5429.2 1129.66C5423.05 1124.88 5415.36 1122.48 5406.13 1122.48C5397.24 1122.48 5389.72 1124.77 5383.57 1129.35C5377.48 1133.94 5372.87 1140.33 5369.72 1148.53C5366.58 1156.74 5365 1166.31 5365 1177.25ZM5581.09 1259.19C5565.57 1259.19 5552.21 1255.88 5540.99 1249.25C5529.85 1242.55 5521.23 1233.14 5515.15 1221.04C5509.13 1208.87 5506.12 1194.62 5506.12 1178.27C5506.12 1162.14 5509.13 1147.92 5515.15 1135.61C5521.23 1123.3 5529.71 1113.7 5540.58 1106.79C5551.52 1099.89 5564.31 1096.43 5578.94 1096.43C5587.83 1096.43 5596.44 1097.9 5604.79 1100.84C5613.13 1103.78 5620.61 1108.4 5627.25 1114.69C5633.88 1120.98 5639.11 1129.15 5642.94 1139.2C5646.77 1149.18 5648.68 1161.32 5648.68 1175.61V1186.48H5523.46V1163.51H5618.63C5618.63 1155.44 5616.99 1148.29 5613.71 1142.07C5610.43 1135.78 5605.81 1130.82 5599.86 1127.2C5593.98 1123.58 5587.08 1121.76 5579.15 1121.76C5570.53 1121.76 5563.01 1123.88 5556.58 1128.12C5550.22 1132.29 5545.3 1137.76 5541.81 1144.53C5538.4 1151.23 5536.69 1158.52 5536.69 1166.38V1184.33C5536.69 1194.86 5538.53 1203.81 5542.22 1211.2C5545.99 1218.58 5551.22 1224.22 5557.92 1228.12C5564.62 1231.95 5572.45 1233.86 5581.4 1233.86C5587.21 1233.86 5592.51 1233.04 5597.3 1231.4C5602.09 1229.69 5606.22 1227.16 5609.71 1223.81C5613.2 1220.46 5615.86 1216.32 5617.71 1211.4L5646.73 1216.63C5644.41 1225.18 5640.24 1232.67 5634.22 1239.09C5628.27 1245.45 5620.79 1250.41 5611.76 1253.96C5602.8 1257.45 5592.58 1259.19 5581.09 1259.19ZM5716.58 1256.01L5670.22 1098.48H5701.91L5732.78 1214.17H5734.32L5765.29 1098.48H5796.98L5827.75 1213.66H5829.29L5859.95 1098.48H5891.64L5845.39 1256.01H5814.11L5782.11 1142.28H5779.75L5747.75 1256.01H5716.58Z" fill="black"/>
<a href="https://www.ls.graphics/illustrations/pew-pew">
<rect fill="black" fill-opacity="0" y="-1.26044" width="4812.6" height="349.521"/>
</a>
</g>
</svg>
