<svg id="eOesofyNYGU1" xmlns="http://www.w3.org/2000/svg" xmlns:xlink="http://www.w3.org/1999/xlink" viewBox="0 0 80 87" shape-rendering="geometricPrecision" text-rendering="geometricPrecision"><style><![CDATA[#eOesofyNYGU3_tr {animation: eOesofyNYGU3_tr__tr 3000ms linear infinite normal forwards}@keyframes eOesofyNYGU3_tr__tr { 0% {transform: translate(45px,20.916302px) rotate(0.489672deg)} 30% {transform: translate(45px,20.916302px) rotate(1.774182deg)} 46.666667% {transform: translate(45px,20.916302px) rotate(4.18deg)} 63.333333% {transform: translate(45px,20.916302px) rotate(-5.710507deg)} 76.666667% {transform: translate(45px,20.916302px) rotate(0.49deg)} 100% {transform: translate(45px,20.916302px) rotate(0.49deg)}} #eOesofyNYGU7_tr {animation: eOesofyNYGU7_tr__tr 3000ms linear infinite normal forwards}@keyframes eOesofyNYGU7_tr__tr { 0% {transform: translate(67.22255px,20.32933px) rotate(4.179497deg)} 10% {transform: translate(67.22255px,20.32933px) rotate(4.179497deg)} 30% {transform: translate(67.22255px,20.32933px) rotate(-0.55deg)} 53.333333% {transform: translate(67.22255px,20.32933px) rotate(-11.211137deg)} 63.333333% {transform: translate(67.22255px,20.32933px) rotate(4.179497deg)} 73.333333% {transform: translate(67.22255px,20.32933px) rotate(-0.551214deg)} 83.333333% {transform: translate(67.22255px,20.32933px) rotate(4.18deg)} 100% {transform: translate(67.22255px,20.32933px) rotate(4.18deg)}} #eOesofyNYGU11_tr {animation: eOesofyNYGU11_tr__tr 3000ms linear infinite normal forwards}@keyframes eOesofyNYGU11_tr__tr { 0% {transform: translate(54px,60.897766px) rotate(14.02822deg)} 23.333333% {transform: translate(54px,60.897766px) rotate(-7.582836deg)} 50% {transform: translate(54px,60.897766px) rotate(3.222692deg)} 76.666667% {transform: translate(54px,60.897766px) rotate(-7.575833deg)} 100% {transform: translate(54px,60.897766px) rotate(14.292612deg)}} #eOesofyNYGU32_ts {animation: eOesofyNYGU32_ts__ts 3000ms linear infinite normal forwards}@keyframes eOesofyNYGU32_ts__ts { 0% {transform: translate(56.00065px,43.000198px) scale(1,0.968411)} 10% {transform: translate(56.00065px,43.000198px) scale(1,0.968411)} 16.666667% {transform: translate(56.00065px,43.000198px) scale(1,0.990478)} 23.333333% {transform: translate(56.00065px,43.000198px) scale(1,0.417514)} 30% {transform: translate(56.00065px,43.000198px) scale(1,0.968411)} 36.666667% {transform: translate(56.00065px,43.000198px) scale(1,0.968411)} 56.666667% {transform: translate(56.00065px,43.000198px) scale(1,0.990478)} 63.333333% {transform: translate(56.00065px,43.000198px) scale(1,0.417514)} 70% {transform: translate(56.00065px,43.000198px) scale(1,0.968411)} 86.666667% {transform: translate(56.00065px,43.000198px) scale(1,0.990478)} 93.333333% {transform: translate(56.00065px,43.000198px) scale(1,0.417514)} 100% {transform: translate(56.00065px,43.000198px) scale(1,0.968411)}}]]></style><g transform="translate(1.9651 0)"><g id="eOesofyNYGU3_tr" transform="translate(45,20.916302) rotate(0.489672)"><g transform="translate(-45.017886,-21.000051)"><path d="M51.677,18.5028L40.3112,26.677L32.137,15.3112c3.0144-2.1679,6.7665-3.0496,10.431-2.4511c3.6645.5986,6.9411,2.6283,9.109,5.6427v0Z" fill="#f26f49"/><path d="M51.2062,18.8414L40.3113,26.677l-5.8388-8.1184c1.4926-1.0736,3.182-1.8427,4.9718-2.2634s3.6448-.4847,5.4594-.1884c2.2938.3792,4.4586,1.3185,6.3025,2.7346v0Z" fill="#f28649"/><path d="M32.137,15.3112c3.0144-2.1679,6.7665-3.0496,10.431-2.4511c3.6645.5986,6.9411,2.6283,9.109,5.6427v0L40.3112,26.677L32.137,15.3112Z" fill="none" stroke="#181818" stroke-width="0.3" stroke-linecap="round" stroke-linejoin="round"/></g></g><g id="eOesofyNYGU7_tr" transform="translate(67.22255,20.32933) rotate(4.179497)"><g transform="translate(-67.22255,-20.329329)"><path d="M78.0261,16.9229L69.4985,28.026L58.3953,19.4984c2.2617-2.9447,5.6005-4.8704,9.282-5.3534s7.4041.5162,10.3488,2.7779v0Z" fill="#f26f49"/><path d="M75.5897,20.0954l-6.0912,7.9308-10.6431-8.1744c2.4435-1.767,5.3923-2.6979,8.4075-2.654s5.9357,1.0601,8.3268,2.8976Z" fill="#f28649"/><path d="M69.4287,28.0349L58.3864,19.4287c2.2825-2.9286,5.6349-4.8306,9.3197-5.2874s7.4002.5688,10.3288,2.8513v0L69.4287,28.0349Z" fill="none" stroke="#181818" stroke-width="0.3" stroke-linecap="round" stroke-linejoin="round"/></g></g><g id="eOesofyNYGU11_tr" transform="translate(54,60.897766) rotate(14.02822)"><g transform="translate(-54,-60.897766)"><path d="M16.8178,19.3268c-4.1703,5.4963-6.571,12.5997-6.7946,20.1043s1.7437,14.9479,5.568,21.0665C18.9306,65.8381,23.5177,69.9,28.751,72.1504s10.8683,2.5845,16.1662.9582s10.0113-5.1369,13.5221-10.0714s5.6551-11.0627,6.1517-17.5808c.1238-1.595.1462-3.2024.0668-4.8087L40.7914,58.472L29.524,37.6664l-.6769-.1068c-1.6765-.2689-3.2987-.9455-4.7651-1.9875s-2.7454-2.4271-3.7569-4.0684-1.7339-3.5035-2.1217-5.4702-.4329-3.9953-.1324-5.959c.0369-.2125.0021-.4362-.0968-.6234-.063-.1122-.1464-.2065-.2436-.2757s-.2059-.1114-.3175-.1234-.2233.0065-.3265.0541-.1951.1231-.2688.2207Z" fill="#f27449"/><path d="M16.8178,19.3267c-2.4403,3.2077-4.2902,6.9946-5.4366,11.1288-.5942,7.9333,1.2884,15.9374,5.2898,22.4901c4.0013,6.5526,9.8422,11.1966,16.4119,13.0487c6.5696,1.8521,13.4096.7831,19.219-3.0037s10.1831-10.0272,12.2891-17.5343c.1238-1.595.1462-3.2024.0668-4.8087L40.7914,58.4719L29.524,37.6663l-.6769-.1067c-1.1287-.1824-2.2345-.5562-3.2835-1.1099-2.6225-1.3407-4.8024-3.706-6.1707-6.6955s-1.841-6.4196-1.338-9.7095c.0369-.2125.0021-.4362-.0968-.6234-.0652-.107-.1493-.1959-.2461-.2603s-.2038-.1024-.3132-.1115-.2184.0111-.3189.0591-.1901.1225-.2621.2181v0Z" fill="#f28649"/><path d="M25.564,36.4497c-1.1843,5.5669-.4735,11.5306,1.9798,16.6103c0,0,0,0,0,0l.5365.9907c2.2696,4.1908,16.2013,8.4521,19.4753,6.327.2775-.2073.555-.4146.8162-.6096c3.885-2.889,6.6668-7.4513,7.7895-12.7747L40.7918,58.4719L29.5243,37.6663l-.6768-.1067c-1.1288-.1824-2.2346-.5562-3.2835-1.1099v0Z" fill="#f27449"/><path d="M13.7233,24.3234c-2.1481,4.3116-3.404,9.1924-3.6673,14.2522-.26319,5.0598.4735,10.1583,2.1514,14.8878s4.2501,8.9589,7.5113,12.35s7.1209,5.8499,11.2704,7.1798s8.4737,1.494,12.627.4792c4.1532-1.0148,8.0204-3.1803,11.2922-6.3235s5.8575-7.1769,7.5504-11.7785s2.446-9.6435,2.1992-14.7227L40.7915,58.4719L29.5241,37.6664l-.4737-.0915c-2.4241-.4553-4.6779-1.8477-6.4109-3.9606-1.7331-2.1129-2.8482-4.8279-3.172-7.7228v0c-.0862-.7642-.3699-1.4843-.8115-2.0599s-1.0191-.9778-1.6518-1.1505-1.2889-.1073-1.8771.1871c-.5883.2945-1.079.8032-1.4038,1.4552v0Z" fill="none" stroke="#181818" stroke-width="0.3" stroke-linecap="round" stroke-linejoin="round"/><path d="M3.22536,19.1638c0,0,11.66114-1.7812,4.51517,15.1245l7.80427,7.6235c.5399.488,8.5115-8.0382,8.5115-8.0382s-.8647-8.3838-3.2184-12.7299c-2.5157-4.6454-8.9499-8.4495-17.61254-1.9799Z" fill="#fff" stroke="#181818" stroke-width="0.3" stroke-linecap="round" stroke-linejoin="round"/></g></g><g><path d="M68.964,69.0003l-8.3923-.1163c-2.4388-.0338-4.848-.6307-7.0901-1.7566s-4.2732-2.7587-5.9773-4.8053c-1.7042-2.0466-3.0479-4.4669-3.9546-7.1226s-1.3584-5.495-1.3296-8.3555l.0991-9.8437l26.9633.3736-.3185,31.6264Z" fill="#f26f49"/><path d="M68.964,69.0003l-8.3923-.1163c-2.4388-.0338-4.848-.6307-7.0901-1.7566s-4.2732-2.7587-5.9773-4.8053c-1.7042-2.0466-3.0479-4.4669-3.9546-7.1226s-1.3584-5.495-1.3296-8.3555l.0991-9.8437l26.9633.3736-.3185,31.6264Z" fill="none" stroke="#181818" stroke-width="0.3" stroke-linecap="round" stroke-linejoin="round"/></g><g><path d="M72,32c0,.3042,0,.6084,0,.8947-.2159,4.2015-1.982,8.1737-4.9568,11.1485s-6.947,4.7409-11.1485,4.9568c0,0,0,0,0,0L55,49c-4.3579.006-8.5516-1.6617-11.7152-4.6588s-5.0554-7.0947-5.2848-11.4465c0-.3042,0-.6084,0-.8947c0-4.5087,1.7911-8.8327,4.9792-12.0208s7.5121-4.9792,12.0208-4.9792s8.8327,1.7911,12.0208,4.9792s4.9792,7.5121,4.9792,12.0208v0Z" fill="#f26f49"/><path d="M70,29.9948c0,.3401,0,.6802,0,1.0003-.2058,4.697-1.8894,9.1377-4.7253,12.4634C62.4389,46.7842,58.6523,48.7586,54.647,49c0,0,0,0,0,0h-.8529c-3.4637.0073-6.8373-1.294-9.6212-3.711C42.2744,42.2991,41.1706,38.7186,41,34.9962c0-.3401,0-.6802,0-1.0003.0015-3.516.8346-6.9626,2.4067-9.9564s3.8216-5.4176,6.4982-7.0016s5.6755-2.2662,8.663-1.9706s5.8466,1.5571,8.2591,3.6445c2.0663,3.2621,3.1792,7.2194,3.173,11.283Z" fill="#f28649"/><g><path d="M71.8949,33.9514c-.4157,4.062-2.2381,7.8392-5.1393,10.6516s-6.6906,4.4756-10.6861,4.6899c0-.1534,0-.3068,0-.4602.3271-13.9788,14.57-14.8271,15.8254-14.8813Z" fill="#fff"/><path d="M38.4757,33.9514c1.3527.0542,17.2488.9025,17.6025,14.8633c0,.1443,0,.2978,0,.4512h-.8841c-4.1472.0042-8.1493-1.5578-11.2359-4.3852s-5.0394-6.7203-5.4825-10.9293v0Z" fill="#fff"/></g><g><path d="M38.4754,33.9514c0-.2888-.053-.5866-.0707-.9024s0-.6137,0-.9025c0-4.5475,1.7698-8.9087,4.9199-12.1243c3.1502-3.2156,7.4227-5.0221,11.8777-5.0221s8.7275,1.8065,11.8777,5.0221c3.1501,3.2156,4.9199,7.5768,4.9199,12.1243c0,.3069,0,.6137,0,.9025s0,.5956-.0707.9024c-.4167,4.0679-2.2442,7.8497-5.1526,10.6629s-6.7062,4.4727-10.7079,4.6787v0h-.8841c-4.1497.0012-8.153-1.5655-11.2382-4.3983s-5.0342-6.7309-5.471-10.9433v0Z" fill="none" stroke="#181818" stroke-width="0.3" stroke-linecap="round" stroke-linejoin="round"/><path d="M38.3871,33.9514h.0884c1.3526.0542,17.2485.9025,17.6021,14.8633c0,.1534,0,.3068,0,.4602" fill="none" stroke="#181818" stroke-width="0.3" stroke-linecap="round" stroke-linejoin="round"/><path d="M71.9822,33.9514h-.0884c-1.2554,0-15.498.9025-15.8163,14.8542c0,.1444,0,.2978,0,.4512" fill="none" stroke="#181818" stroke-width="0.3" stroke-linecap="round" stroke-linejoin="round"/></g><path d="M56.5,50c1.3807,0,2.5-.4477,2.5-1s-1.1193-1-2.5-1-2.5.4477-2.5,1s1.1193,1,2.5,1Z" fill="#181818"/><path d="M45,26c1.4551-2.7428,3.5533-4.841,6-6" fill="none" stroke="#181818" stroke-width="0.3" stroke-linecap="round" stroke-linejoin="round"/></g><g id="eOesofyNYGU32_ts" transform="translate(56.00065,43.000198) scale(1,0.968411)"><g transform="translate(-55.00065,-43.000198)"><path d="M48.7812,44.0002c.458,0,.8292-.4477.8292-1s-.3712-1-.8292-1-.8293.4477-.8293,1s.3713,1,.8293,1Z" fill="#181818"/><path d="M61.2201,44.0002c.458,0,.8293-.4477.8293-1s-.3713-1-.8293-1-.8292.4477-.8292,1s.3712,1,.8292,1Z" fill="#181818"/></g></g></g></svg>