<svg width="auto" height="auto" viewBox="0 0 12900 7607" fill="none" xmlns="http://www.w3.org/2000/svg">
<g id="Component">
<g id="Union">
<mask id="path-1-inside-1_106_11" fill="white">
<path d="M0 722C0 666.771 44.7715 622 100 622H12800C12855.2 622 12900 666.772 12900 722V7507C12900 7562.23 12855.2 7607 12800 7607H100C44.7716 7607 0 7562.23 0 7507V722Z"/>
</mask>
<path d="M0 722C0 666.771 44.7715 622 100 622H12800C12855.2 622 12900 666.772 12900 722V7507C12900 7562.23 12855.2 7607 12800 7607H100C44.7716 7607 0 7562.23 0 7507V722Z" fill="#81C0EE"/>
<path d="M100 629H12800V615H100V629ZM12893 722V7507H12907V722H12893ZM12800 7600H100V7614H12800V7600ZM7 7507V722H-7V7507H7ZM100 7600C48.6376 7600 7 7558.36 7 7507H-7C-7 7566.09 40.9056 7614 100 7614V7600ZM12893 7507C12893 7558.36 12851.4 7600 12800 7600V7614C12859.1 7614 12907 7566.09 12907 7507H12893ZM12800 629C12851.4 629 12893 670.638 12893 722H12907C12907 662.906 12859.1 615 12800 615V629ZM100 615C40.9055 615 -7 662.905 -7 722H7C7 670.637 48.6375 629 100 629V615Z" fill="black" mask="url(#path-1-inside-1_106_11)"/>
</g>
<rect id="Rectangle 1313" x="271" y="1575" width="12358" height="5787" rx="59.7551" fill="#E9E9E9" stroke="black" stroke-width="7"/>
<path id="Star 3" d="M553 900L590.12 1116.31L825 1150.5L590.12 1184.69L553 1401L515.88 1184.69L281 1150.5L515.88 1116.31L553 900Z" fill="#FFDF6C" stroke="black" stroke-width="7"/>
<path id="System" d="M1225.08 1101.15C1223.99 1091.44 1219.48 1083.92 1211.55 1078.59C1203.61 1073.19 1193.63 1070.49 1181.6 1070.49C1172.98 1070.49 1165.53 1071.85 1159.24 1074.59C1152.95 1077.25 1148.06 1080.95 1144.57 1085.66C1141.16 1090.31 1139.45 1095.61 1139.45 1101.56C1139.45 1106.55 1140.61 1110.86 1142.93 1114.48C1145.33 1118.11 1148.44 1121.15 1152.27 1123.61C1156.16 1126 1160.33 1128.02 1164.78 1129.66C1169.22 1131.23 1173.5 1132.53 1177.6 1133.56L1198.11 1138.89C1204.81 1140.53 1211.68 1142.76 1218.72 1145.56C1225.77 1148.36 1232.3 1152.05 1238.31 1156.64C1244.33 1161.22 1249.18 1166.89 1252.88 1173.66C1256.64 1180.43 1258.52 1188.53 1258.52 1197.97C1258.52 1209.86 1255.44 1220.43 1249.29 1229.66C1243.2 1238.89 1234.35 1246.17 1222.72 1251.5C1211.17 1256.84 1197.19 1259.5 1180.78 1259.5C1165.05 1259.5 1151.45 1257.01 1139.96 1252.01C1128.47 1247.02 1119.48 1239.95 1112.99 1230.79C1106.49 1221.55 1102.9 1210.62 1102.22 1197.97H1134.01C1134.63 1205.56 1137.09 1211.88 1141.4 1216.94C1145.77 1221.93 1151.34 1225.66 1158.11 1228.12C1164.95 1230.51 1172.44 1231.71 1180.57 1231.71C1189.53 1231.71 1197.49 1230.31 1204.47 1227.5C1211.51 1224.63 1217.05 1220.67 1221.08 1215.61C1225.12 1210.48 1227.13 1204.5 1227.13 1197.66C1227.13 1191.44 1225.36 1186.34 1221.8 1182.38C1218.31 1178.41 1213.56 1175.13 1207.55 1172.53C1201.6 1169.93 1194.86 1167.64 1187.34 1165.66L1162.52 1158.89C1145.7 1154.31 1132.37 1147.58 1122.52 1138.69C1112.75 1129.8 1107.86 1118.04 1107.86 1103.41C1107.86 1091.3 1111.14 1080.74 1117.7 1071.72C1124.27 1062.69 1133.16 1055.68 1144.37 1050.69C1155.58 1045.63 1168.23 1043.1 1182.32 1043.1C1196.54 1043.1 1209.08 1045.6 1219.96 1050.59C1230.89 1055.58 1239.51 1062.45 1245.8 1071.2C1252.09 1079.89 1255.37 1089.87 1255.65 1101.15H1225.08ZM1313.31 1315.09C1308.73 1315.09 1304.56 1314.71 1300.8 1313.96C1297.04 1313.28 1294.23 1312.52 1292.39 1311.7L1299.77 1286.58C1305.38 1288.08 1310.37 1288.73 1314.75 1288.53C1319.12 1288.32 1322.98 1286.68 1326.33 1283.6C1329.75 1280.53 1332.76 1275.5 1335.36 1268.53L1339.15 1258.07L1281.52 1098.48H1314.34L1354.23 1220.73H1355.87L1395.77 1098.48H1428.69L1363.77 1277.04C1360.76 1285.24 1356.93 1292.18 1352.28 1297.86C1347.63 1303.6 1342.09 1307.91 1335.67 1310.78C1329.24 1313.65 1321.79 1315.09 1313.31 1315.09ZM1575.55 1136.94L1547.76 1141.87C1546.6 1138.31 1544.75 1134.93 1542.22 1131.71C1539.76 1128.5 1536.41 1125.87 1532.17 1123.82C1527.93 1121.76 1522.63 1120.74 1516.27 1120.74C1507.59 1120.74 1500.34 1122.69 1494.53 1126.59C1488.72 1130.41 1485.81 1135.37 1485.81 1141.46C1485.81 1146.72 1487.76 1150.96 1491.66 1154.17C1495.56 1157.39 1501.85 1160.02 1510.53 1162.07L1535.55 1167.81C1550.05 1171.16 1560.85 1176.33 1567.96 1183.3C1575.07 1190.27 1578.63 1199.33 1578.63 1210.48C1578.63 1219.91 1575.89 1228.32 1570.42 1235.71C1565.02 1243.02 1557.47 1248.77 1547.76 1252.94C1538.12 1257.11 1526.94 1259.19 1514.22 1259.19C1496.58 1259.19 1482.19 1255.43 1471.05 1247.91C1459.9 1240.32 1453.06 1229.55 1450.53 1215.61L1480.17 1211.09C1482.02 1218.82 1485.81 1224.67 1491.56 1228.63C1497.3 1232.53 1504.79 1234.48 1514.02 1234.48C1524.07 1234.48 1532.1 1232.39 1538.12 1228.22C1544.14 1223.98 1547.14 1218.82 1547.14 1212.73C1547.14 1207.81 1545.3 1203.68 1541.61 1200.33C1537.98 1196.97 1532.41 1194.45 1524.89 1192.74L1498.22 1186.89C1483.52 1183.54 1472.65 1178.21 1465.61 1170.89C1458.64 1163.57 1455.15 1154.31 1455.15 1143.1C1455.15 1133.8 1457.75 1125.66 1462.94 1118.69C1468.14 1111.71 1475.32 1106.28 1484.48 1102.38C1493.64 1098.42 1504.14 1096.43 1515.97 1096.43C1532.99 1096.43 1546.39 1100.13 1556.17 1107.51C1565.95 1114.83 1572.41 1124.64 1575.55 1136.94ZM1685.88 1098.48V1123.1H1599.83V1098.48H1685.88ZM1622.91 1060.74H1653.57V1209.76C1653.57 1215.71 1654.46 1220.19 1656.24 1223.2C1658.02 1226.14 1660.31 1228.15 1663.11 1229.25C1665.98 1230.27 1669.1 1230.79 1672.45 1230.79C1674.91 1230.79 1677.06 1230.61 1678.91 1230.27C1680.75 1229.93 1682.19 1229.66 1683.21 1229.45L1688.75 1254.78C1686.97 1255.47 1684.44 1256.15 1681.16 1256.84C1677.88 1257.59 1673.78 1258 1668.86 1258.07C1660.79 1258.2 1653.27 1256.77 1646.29 1253.76C1639.32 1250.75 1633.68 1246.1 1629.37 1239.81C1625.06 1233.52 1622.91 1225.62 1622.91 1216.12V1060.74ZM1786 1259.19C1770.48 1259.19 1757.12 1255.88 1745.9 1249.25C1734.76 1242.55 1726.14 1233.14 1720.06 1221.04C1714.04 1208.87 1711.03 1194.62 1711.03 1178.27C1711.03 1162.14 1714.04 1147.92 1720.06 1135.61C1726.14 1123.3 1734.62 1113.7 1745.49 1106.79C1756.43 1099.89 1769.22 1096.43 1783.85 1096.43C1792.74 1096.43 1801.35 1097.9 1809.69 1100.84C1818.04 1103.78 1825.52 1108.4 1832.16 1114.69C1838.79 1120.98 1844.02 1129.15 1847.85 1139.2C1851.68 1149.18 1853.59 1161.32 1853.59 1175.61V1186.48H1728.37V1163.51H1823.54C1823.54 1155.44 1821.9 1148.29 1818.62 1142.07C1815.34 1135.78 1810.72 1130.82 1804.77 1127.2C1798.89 1123.58 1791.99 1121.76 1784.06 1121.76C1775.44 1121.76 1767.92 1123.88 1761.49 1128.12C1755.13 1132.29 1750.21 1137.76 1746.72 1144.53C1743.31 1151.23 1741.6 1158.52 1741.6 1166.38V1184.33C1741.6 1194.86 1743.44 1203.81 1747.13 1211.2C1750.89 1218.58 1756.12 1224.22 1762.83 1228.12C1769.53 1231.95 1777.35 1233.86 1786.31 1233.86C1792.12 1233.86 1797.42 1233.04 1802.21 1231.4C1806.99 1229.69 1811.13 1227.16 1814.62 1223.81C1818.1 1220.46 1820.77 1216.32 1822.62 1211.4L1851.64 1216.63C1849.32 1225.18 1845.15 1232.67 1839.13 1239.09C1833.18 1245.45 1825.69 1250.41 1816.67 1253.96C1807.71 1257.45 1797.49 1259.19 1786 1259.19ZM1887.61 1256.01V1098.48H1917.05V1124.12H1919C1922.28 1115.44 1927.65 1108.67 1935.1 1103.82C1942.55 1098.89 1951.47 1096.43 1961.87 1096.43C1972.4 1096.43 1981.22 1098.89 1988.33 1103.82C1995.51 1108.74 2000.8 1115.51 2004.22 1124.12H2005.86C2009.63 1115.71 2015.61 1109.01 2023.81 1104.02C2032.02 1098.96 2041.79 1096.43 2053.14 1096.43C2067.43 1096.43 2079.09 1100.91 2088.12 1109.87C2097.21 1118.82 2101.76 1132.33 2101.76 1150.38V1256.01H2071.09V1153.25C2071.09 1142.58 2068.19 1134.86 2062.37 1130.07C2056.56 1125.29 2049.62 1122.89 2041.56 1122.89C2031.57 1122.89 2023.81 1125.97 2018.27 1132.12C2012.74 1138.21 2009.97 1146.04 2009.97 1155.61V1256.01H1979.4V1151.3C1979.4 1142.76 1976.74 1135.88 1971.4 1130.69C1966.07 1125.49 1959.13 1122.89 1950.59 1122.89C1944.77 1122.89 1939.41 1124.43 1934.48 1127.51C1929.63 1130.52 1925.7 1134.72 1922.69 1140.12C1919.75 1145.52 1918.28 1151.78 1918.28 1158.89V1256.01H1887.61ZM2221.75 1045.97H2260.21L2327.08 1209.25H2329.54L2396.41 1045.97H2434.87V1256.01H2404.72V1104.02H2402.77L2340.82 1255.71H2315.8L2253.85 1103.92H2251.9V1256.01H2221.75V1045.97ZM2546.38 1259.19C2530.86 1259.19 2517.49 1255.88 2506.28 1249.25C2495.13 1242.55 2486.52 1233.14 2480.43 1221.04C2474.41 1208.87 2471.41 1194.62 2471.41 1178.27C2471.41 1162.14 2474.41 1147.92 2480.43 1135.61C2486.52 1123.3 2494.99 1113.7 2505.87 1106.79C2516.8 1099.89 2529.59 1096.43 2544.22 1096.43C2553.11 1096.43 2561.73 1097.9 2570.07 1100.84C2578.41 1103.78 2585.9 1108.4 2592.53 1114.69C2599.16 1120.98 2604.39 1129.15 2608.22 1139.2C2612.05 1149.18 2613.96 1161.32 2613.96 1175.61V1186.48H2488.74V1163.51H2583.91C2583.91 1155.44 2582.27 1148.29 2578.99 1142.07C2575.71 1135.78 2571.09 1130.82 2565.14 1127.2C2559.26 1123.58 2552.36 1121.76 2544.43 1121.76C2535.81 1121.76 2528.29 1123.88 2521.86 1128.12C2515.51 1132.29 2510.58 1137.76 2507.1 1144.53C2503.68 1151.23 2501.97 1158.52 2501.97 1166.38V1184.33C2501.97 1194.86 2503.81 1203.81 2507.51 1211.2C2511.27 1218.58 2516.5 1224.22 2523.2 1228.12C2529.9 1231.95 2537.73 1233.86 2546.68 1233.86C2552.5 1233.86 2557.79 1233.04 2562.58 1231.4C2567.37 1229.69 2571.5 1227.16 2574.99 1223.81C2578.48 1220.46 2581.14 1216.32 2582.99 1211.4L2612.01 1216.63C2609.69 1225.18 2605.52 1232.67 2599.5 1239.09C2593.55 1245.45 2586.07 1250.41 2577.04 1253.96C2568.08 1257.45 2557.86 1259.19 2546.38 1259.19ZM2766.03 1136.94L2738.24 1141.87C2737.08 1138.31 2735.23 1134.93 2732.7 1131.71C2730.24 1128.5 2726.89 1125.87 2722.65 1123.82C2718.41 1121.76 2713.11 1120.74 2706.75 1120.74C2698.07 1120.74 2690.82 1122.69 2685.01 1126.59C2679.2 1130.41 2676.29 1135.37 2676.29 1141.46C2676.29 1146.72 2678.24 1150.96 2682.14 1154.17C2686.04 1157.39 2692.33 1160.02 2701.01 1162.07L2726.03 1167.81C2740.53 1171.16 2751.33 1176.33 2758.44 1183.3C2765.55 1190.27 2769.11 1199.33 2769.11 1210.48C2769.11 1219.91 2766.37 1228.32 2760.9 1235.71C2755.5 1243.02 2747.95 1248.77 2738.24 1252.94C2728.6 1257.11 2717.42 1259.19 2704.7 1259.19C2687.06 1259.19 2672.67 1255.43 2661.52 1247.91C2650.38 1240.32 2643.54 1229.55 2641.01 1215.61L2670.65 1211.09C2672.5 1218.82 2676.29 1224.67 2682.04 1228.63C2687.78 1232.53 2695.27 1234.48 2704.5 1234.48C2714.55 1234.48 2722.58 1232.39 2728.6 1228.22C2734.61 1223.98 2737.62 1218.82 2737.62 1212.73C2737.62 1207.81 2735.78 1203.68 2732.08 1200.33C2728.46 1196.97 2722.89 1194.45 2715.37 1192.74L2688.7 1186.89C2674 1183.54 2663.13 1178.21 2656.09 1170.89C2649.11 1163.57 2645.63 1154.31 2645.63 1143.1C2645.63 1133.8 2648.23 1125.66 2653.42 1118.69C2658.62 1111.71 2665.8 1106.28 2674.96 1102.38C2684.12 1098.42 2694.62 1096.43 2706.44 1096.43C2723.47 1096.43 2736.87 1100.13 2746.65 1107.51C2756.43 1114.83 2762.89 1124.64 2766.03 1136.94ZM2920.87 1136.94L2893.08 1141.87C2891.91 1138.31 2890.07 1134.93 2887.54 1131.71C2885.08 1128.5 2881.73 1125.87 2877.49 1123.82C2873.25 1121.76 2867.95 1120.74 2861.59 1120.74C2852.91 1120.74 2845.66 1122.69 2839.85 1126.59C2834.04 1130.41 2831.13 1135.37 2831.13 1141.46C2831.13 1146.72 2833.08 1150.96 2836.98 1154.17C2840.87 1157.39 2847.16 1160.02 2855.85 1162.07L2880.87 1167.81C2895.37 1171.16 2906.17 1176.33 2913.28 1183.3C2920.39 1190.27 2923.95 1199.33 2923.95 1210.48C2923.95 1219.91 2921.21 1228.32 2915.74 1235.71C2910.34 1243.02 2902.79 1248.77 2893.08 1252.94C2883.44 1257.11 2872.26 1259.19 2859.54 1259.19C2841.9 1259.19 2827.51 1255.43 2816.36 1247.91C2805.22 1240.32 2798.38 1229.55 2795.85 1215.61L2825.49 1211.09C2827.34 1218.82 2831.13 1224.67 2836.87 1228.63C2842.62 1232.53 2850.1 1234.48 2859.33 1234.48C2869.39 1234.48 2877.42 1232.39 2883.44 1228.22C2889.45 1223.98 2892.46 1218.82 2892.46 1212.73C2892.46 1207.81 2890.61 1203.68 2886.92 1200.33C2883.3 1196.97 2877.73 1194.45 2870.21 1192.74L2843.54 1186.89C2828.84 1183.54 2817.97 1178.21 2810.93 1170.89C2803.95 1163.57 2800.47 1154.31 2800.47 1143.1C2800.47 1133.8 2803.06 1125.66 2808.26 1118.69C2813.46 1111.71 2820.64 1106.28 2829.8 1102.38C2838.96 1098.42 2849.45 1096.43 2861.28 1096.43C2878.31 1096.43 2891.71 1100.13 2901.49 1107.51C2911.26 1114.83 2917.72 1124.64 2920.87 1136.94ZM3003.51 1259.5C2993.52 1259.5 2984.5 1257.66 2976.43 1253.96C2968.36 1250.2 2961.97 1244.77 2957.25 1237.66C2952.6 1230.55 2950.28 1221.83 2950.28 1211.5C2950.28 1202.62 2951.99 1195.3 2955.41 1189.56C2958.83 1183.81 2963.44 1179.27 2969.25 1175.92C2975.06 1172.57 2981.56 1170.04 2988.74 1168.33C2995.92 1166.62 3003.23 1165.32 3010.69 1164.43C3020.12 1163.34 3027.78 1162.45 3033.66 1161.76C3039.54 1161.01 3043.81 1159.81 3046.48 1158.17C3049.15 1156.53 3050.48 1153.87 3050.48 1150.17V1149.46C3050.48 1140.5 3047.95 1133.56 3042.89 1128.64C3037.9 1123.71 3030.45 1121.25 3020.53 1121.25C3010.21 1121.25 3002.07 1123.54 2996.12 1128.12C2990.24 1132.64 2986.17 1137.66 2983.92 1143.2L2955.1 1136.64C2958.52 1127.06 2963.51 1119.34 2970.07 1113.46C2976.7 1107.51 2984.33 1103.2 2992.94 1100.54C3001.56 1097.8 3010.62 1096.43 3020.12 1096.43C3026.41 1096.43 3033.08 1097.19 3040.12 1098.69C3047.23 1100.13 3053.86 1102.79 3060.02 1106.69C3066.24 1110.59 3071.33 1116.16 3075.3 1123.41C3079.26 1130.59 3081.25 1139.92 3081.25 1151.4V1256.01H3051.3V1234.48H3050.07C3048.09 1238.44 3045.11 1242.34 3041.15 1246.17C3037.18 1250 3032.09 1253.18 3025.86 1255.71C3019.64 1258.24 3012.19 1259.5 3003.51 1259.5ZM3010.17 1234.89C3018.65 1234.89 3025.9 1233.21 3031.92 1229.86C3038 1226.51 3042.62 1222.14 3045.76 1216.73C3048.97 1211.26 3050.58 1205.42 3050.58 1199.2V1178.89C3049.49 1179.98 3047.37 1181.01 3044.22 1181.97C3041.15 1182.86 3037.62 1183.64 3033.66 1184.33C3029.69 1184.94 3025.83 1185.52 3022.07 1186.07C3018.31 1186.55 3015.16 1186.96 3012.63 1187.3C3006.69 1188.05 3001.25 1189.32 2996.33 1191.09C2991.47 1192.87 2987.58 1195.44 2984.64 1198.79C2981.76 1202.07 2980.33 1206.44 2980.33 1211.91C2980.33 1219.5 2983.13 1225.25 2988.74 1229.14C2994.34 1232.97 3001.49 1234.89 3010.17 1234.89ZM3188.14 1318.37C3175.63 1318.37 3164.86 1316.73 3155.83 1313.45C3146.88 1310.17 3139.56 1305.82 3133.88 1300.42C3128.21 1295.02 3123.97 1289.11 3121.17 1282.68L3147.53 1271.81C3149.37 1274.82 3151.83 1278 3154.91 1281.35C3158.05 1284.77 3162.29 1287.67 3167.63 1290.06C3173.03 1292.46 3179.97 1293.65 3188.45 1293.65C3200.07 1293.65 3209.68 1290.82 3217.27 1285.14C3224.85 1279.53 3228.65 1270.58 3228.65 1258.27V1227.3H3226.7C3224.85 1230.65 3222.19 1234.37 3218.7 1238.48C3215.28 1242.58 3210.56 1246.13 3204.55 1249.14C3198.53 1252.15 3190.7 1253.66 3181.06 1253.66C3168.62 1253.66 3157.4 1250.75 3147.42 1244.94C3137.51 1239.06 3129.65 1230.41 3123.83 1218.99C3118.09 1207.5 3115.22 1193.39 3115.22 1176.63C3115.22 1159.88 3118.06 1145.52 3123.73 1133.56C3129.47 1121.59 3137.34 1112.43 3147.32 1106.07C3157.3 1099.65 3168.62 1096.43 3181.27 1096.43C3191.04 1096.43 3198.94 1098.07 3204.96 1101.36C3210.97 1104.57 3215.66 1108.33 3219.01 1112.64C3222.43 1116.94 3225.06 1120.74 3226.91 1124.02H3229.16V1098.48H3259.21V1259.5C3259.21 1273.04 3256.07 1284.15 3249.78 1292.83C3243.49 1301.52 3234.97 1307.94 3224.24 1312.11C3213.57 1316.29 3201.54 1318.37 3188.14 1318.37ZM3187.83 1228.22C3196.65 1228.22 3204.1 1226.17 3210.19 1222.07C3216.34 1217.9 3220.99 1211.95 3224.14 1204.22C3227.35 1196.43 3228.96 1187.1 3228.96 1176.22C3228.96 1165.63 3227.38 1156.29 3224.24 1148.23C3221.09 1140.16 3216.48 1133.87 3210.39 1129.35C3204.31 1124.77 3196.79 1122.48 3187.83 1122.48C3178.6 1122.48 3170.91 1124.88 3164.75 1129.66C3158.6 1134.38 3153.95 1140.81 3150.81 1148.94C3147.73 1157.08 3146.19 1166.17 3146.19 1176.22C3146.19 1186.55 3147.76 1195.61 3150.91 1203.4C3154.05 1211.2 3158.7 1217.28 3164.86 1221.66C3171.08 1226.03 3178.74 1228.22 3187.83 1228.22ZM3368.23 1259.19C3352.71 1259.19 3339.34 1255.88 3328.13 1249.25C3316.99 1242.55 3308.37 1233.14 3302.29 1221.04C3296.27 1208.87 3293.26 1194.62 3293.26 1178.27C3293.26 1162.14 3296.27 1147.92 3302.29 1135.61C3308.37 1123.3 3316.85 1113.7 3327.72 1106.79C3338.66 1099.89 3351.45 1096.43 3366.08 1096.43C3374.97 1096.43 3383.58 1097.9 3391.92 1100.84C3400.26 1103.78 3407.75 1108.4 3414.38 1114.69C3421.02 1120.98 3426.25 1129.15 3430.07 1139.2C3433.9 1149.18 3435.82 1161.32 3435.82 1175.61V1186.48H3310.59V1163.51H3405.77C3405.77 1155.44 3404.13 1148.29 3400.85 1142.07C3397.56 1135.78 3392.95 1130.82 3387 1127.2C3381.12 1123.58 3374.21 1121.76 3366.28 1121.76C3357.67 1121.76 3350.15 1123.88 3343.72 1128.12C3337.36 1132.29 3332.44 1137.76 3328.95 1144.53C3325.53 1151.23 3323.82 1158.52 3323.82 1166.38V1184.33C3323.82 1194.86 3325.67 1203.81 3329.36 1211.2C3333.12 1218.58 3338.35 1224.22 3345.05 1228.12C3351.75 1231.95 3359.58 1233.86 3368.54 1233.86C3374.35 1233.86 3379.65 1233.04 3384.44 1231.4C3389.22 1229.69 3393.36 1227.16 3396.85 1223.81C3400.33 1220.46 3403 1216.32 3404.85 1211.4L3433.87 1216.63C3431.54 1225.18 3427.37 1232.67 3421.36 1239.09C3415.41 1245.45 3407.92 1250.41 3398.9 1253.96C3389.94 1257.45 3379.72 1259.19 3368.23 1259.19Z" fill="black"/>
</g>
</svg>
